<svg width="1600" height="900" viewBox="0 0 1600 900" fill="none" xmlns="http://www.w3.org/2000/svg">
  <rect width="1600" height="900" rx="40" fill="#F8FAFC"/>
  <rect x="72" y="72" width="1456" height="756" rx="36" fill="#FFFFFF" stroke="#E2E8F0" stroke-width="2"/>

  <rect x="160" y="176" width="440" height="18" rx="9" fill="#CBD5E1"/>
  <rect x="160" y="216" width="320" height="14" rx="7" fill="#E2E8F0"/>

  <rect x="160" y="300" width="520" height="280" rx="30" fill="#EFF6FF" stroke="#BFDBFE" stroke-width="2"/>
  <rect x="204" y="346" width="164" height="18" rx="9" fill="#93C5FD"/>
  <rect x="204" y="388" width="380" height="14" rx="7" fill="#BFDBFE"/>
  <rect x="204" y="420" width="300" height="14" rx="7" fill="#BFDBFE"/>
  <rect x="204" y="452" width="340" height="14" rx="7" fill="#BFDBFE"/>

  <rect x="980" y="194" width="300" height="300" rx="34" fill="#F8FAFC" stroke="#E2E8F0" stroke-width="2"/>
  <rect x="1038" y="248" width="184" height="122" rx="24" fill="#DBEAFE"/>
  <path d="M1062 274H1204" stroke="#93C5FD" stroke-width="16" stroke-linecap="round"/>
  <path d="M1062 314H1168" stroke="#BFDBFE" stroke-width="14" stroke-linecap="round"/>
  <path d="M1062 348H1144" stroke="#BFDBFE" stroke-width="14" stroke-linecap="round"/>
  <path d="M1110 228L1190 286" stroke="#2563EB" stroke-width="10" stroke-linecap="round"/>

  <rect x="160" y="650" width="520" height="12" rx="6" fill="#E2E8F0"/>
  <rect x="160" y="682" width="400" height="12" rx="6" fill="#E2E8F0"/>
</svg>
